# xmcd
#
# Track frame offsets: 
#        150
#        18837
#        32771
#        51427
#        65502
#        82223
#        96884
#        113741
#        130095
#        141955
#        152586
#        163310
#        181361
#        193423
#        208672
#
# Disc length: 2935 seconds
#
# Revision: 0
# Processed by: cddbd v1.4PL0 Copyright (c) Steve Scherf et al.
# Submitted via: ExactAudioCopy v0.95a3
#
DISCID=db0b750f
DTITLE=Freddie and Screamers - Time Capsule
DYEAR=1995
DGENRE=
TTITLE0=Red, White and Blues
TTITLE1=The Eyes Don't Lie
TTITLE2=Groove Thing
TTITLE3=Shake You Down
TTITLE4=The Danger Zone
TTITLE5=Temporary Insanity
TTITLE6=You Put A Spell On Me
TTITLE7=Raised On The Blues
TTITLE8=Fatback
TTITLE9=Da Bluze
TTITLE10=Big Black Cadillac
TTITLE11=It Ain't Easy Being Me
TTITLE12=Hot Damn
TTITLE13=I'm On Fire
TTITLE14=Who's Laughing Now
EXTD=
EXTT0=
EXTT1=
EXTT2=
EXTT3=
EXTT4=
EXTT5=
EXTT6=
EXTT7=
EXTT8=
EXTT9=
EXTT10=
EXTT11=
EXTT12=
EXTT13=
EXTT14=
PLAYORDER=
